<?xml version="1.0" standalone="no"?>
<!DOCTYPE svg PUBLIC "-//W3C//DTD SVG 20010904//EN"
 "http://www.w3.org/TR/2001/REC-SVG-20010904/DTD/svg10.dtd">
<svg version="1.0" xmlns="http://www.w3.org/2000/svg"
 width="128.000000pt" height="128.000000pt" viewBox="0 0 128.000000 128.000000"
 preserveAspectRatio="xMidYMid meet">
<metadata>
Created by potrace 1.14, written by Peter Selinger 2001-2017
</metadata>
<g transform="translate(0.000000,128.000000) scale(0.100000,-0.100000)"
fill="#000000" stroke="none">
<path d="M338 1168 c-105 -15 -185 -81 -218 -183 -18 -56 -19 -633 0 -690 28
-86 89 -147 175 -175 29 -10 122 -13 345 -13 328 0 355 3 420 51 51 38 55 43
85 103 l28 54 0 315 c0 333 -3 361 -48 428 -28 42 -88 85 -139 102 -43 14
-564 21 -648 8z m632 -116 c39 -18 56 -34 77 -74 18 -34 19 -57 19 -345 -1
-345 -1 -344 -74 -393 l-37 -25 -295 -2 c-182 -1 -308 2 -330 9 -47 14 -98 64
-109 108 -5 19 -9 168 -8 330 2 270 4 298 21 326 19 31 63 64 101 75 39 11
609 3 635 -9z"/>
<path d="M403 898 c-28 -14 -35 -32 -23 -63 14 -36 58 -44 82 -15 24 30 23 56
-4 74 -26 18 -26 18 -55 4z"/>
<path d="M602 678 c-7 -7 -12 -24 -12 -38 0 -33 17 -50 50 -50 33 0 50 17 50
50 0 14 -5 31 -12 38 -15 15 -61 15 -76 0z"/>
<path d="M817 462 c-10 -10 -17 -26 -17 -35 0 -24 35 -56 57 -52 10 2 21 4 25
4 3 1 11 15 17 31 9 26 7 34 -9 50 -25 25 -52 25 -73 2z"/>
</g>
</svg>
